<?xml version="1.0" encoding="UTF-8"?><svg id="Layer_1" xmlns="http://www.w3.org/2000/svg" viewBox="0 0 229.15 99.73"><defs><style>.cls-1{fill:#2eb6b9;}</style></defs><path class="cls-1" d="m65.84,27.65v-.02c-.26-.32-.42-.73-.42-1.17s.16-.85.42-1.17h0c2.74-3.58,6.06-7.09,9.37-10.43,5.75-5.81,12.28-10.89,18.84-14.85h-19.23c-9.96,7.18-18.76,16.82-24.49,26.46,5.73,9.64,14.53,19.28,24.49,26.46h19.23c-6.56-3.96-13.09-9.04-18.84-14.85-3.31-3.33-6.63-6.85-9.37-10.41"/><path class="cls-1" d="m163.31,27.65v-.02c.26-.32.42-.73.42-1.17s-.16-.85-.42-1.17h0c-2.74-3.58-6.06-7.09-9.37-10.43-5.75-5.81-12.28-10.89-18.84-14.85h19.23c9.96,7.18,18.76,16.82,24.49,26.46-5.74,9.64-14.53,19.28-24.49,26.46h-19.23c6.56-3.96,13.09-9.04,18.84-14.85,3.31-3.33,6.63-6.85,9.37-10.41"/><path class="cls-1" d="m114.58,37.8c-6.26,0-11.34-5.08-11.34-11.34s5.07-11.34,11.34-11.34,11.34,5.07,11.34,11.34-5.08,11.34-11.34,11.34m0-37.8c-14.62,0-26.46,11.84-26.46,26.46s11.84,26.46,26.46,26.46,26.46-11.84,26.46-26.46S129.19,0,114.58,0"/><path class="cls-1" d="m125.85,91.38l-6.77-16.86h-3.46l-6.78,16.86-6.77-16.86h-5.15s10.03,24.68,10.03,24.68h3.47l6.93-17.32,6.93,17.32h3.47l10.03-24.68h-5.14s-6.78,16.86-6.78,16.86Zm79.5-7.66c-.73-3.15-3.57-5.36-6.51-5.36-3.2,0-6.09,2.15-6.94,5.36h13.45Zm5.15,4.21h-19.01c.26,4.14,3.68,7.46,7.98,7.46,3.67,0,5.67-1.79,7.09-3.36l3.25,3.1c-1.84,2.36-5.36,4.62-10.4,4.62-7.2,0-12.76-5.46-12.76-12.87,0-7.4,5.04-12.87,12.03-12.87,6.88,0,11.87,5.57,11.87,12.87,0,.21,0,.58-.05,1.05m9.32-10.56v-2.84h-4.83v24.68s4.98,0,4.98,0v-16.34c1.37-2.36,4.1-4.15,6.67-4.15.79,0,1.37.05,1.94.21l.58-4.78c-.58-.1-1.42-.16-1.94-.16-3.63,0-6.2,1.69-7.41,3.37m-62.08,4.88c-1.53-1.99-4.04-3.52-7.04-3.51-4.78,0-7.93,3.83-7.93,8.14s3.42,8.14,8.19,8.14c2.52,0,5.09-1.26,6.78-3.52v-9.25Zm.16-7.71h4.83v24.68s-4.83,0-4.83,0v-2.26c-2,1.78-4.68,2.78-7.62,2.78-2.2,0-4.52-.63-6.2-1.63-3.73-2.21-6.3-6.3-6.3-11.24s2.63-9.09,6.36-11.29c1.69-.99,3.73-1.57,6.04-1.57,2.79,0,5.47.84,7.73,2.79v-2.26Zm-99.07,9.18c-.74-3.15-3.58-5.35-6.51-5.35-3.21,0-6.1,2.15-6.94,5.36h13.45Zm5.19,3.15c0,.21,0,.58-.05,1.05h-19.01c.26,4.14,3.68,7.45,7.99,7.46,3.68,0,5.67-1.79,7.09-3.36l3.26,3.09c-1.85,2.36-5.36,4.62-10.41,4.62-7.2,0-12.76-5.46-12.76-12.87,0-7.4,5.05-12.87,12.04-12.87,6.87,0,11.86,5.56,11.86,12.87m9.58-24.95h-4.98s0,37.29,0,37.29h4.99v-37.29Zm-55.73,22.95L3.68,62.43H0s0,36.77,0,36.77h5.25s0-24.74,0-24.74l10.77,16.86h3.68l10.77-16.86v24.74s5.25,0,5.25,0v-36.77s-3.67,0-3.67,0l-14.19,22.43Zm63.84-17.17v6.83s-3.59,0-3.59,0v4.46h3.6s0,11.29,0,11.29c0,2.68.53,4.94,2,6.56,1.58,1.79,3.89,2.89,6.99,2.89,1.42,0,2.94-.21,3.88-.53l-.99-4.52c-.73.22-2,.32-2.73.32-1.31,0-2.73-.47-3.42-1.31-.63-.73-.73-1.84-.73-3.15v-11.55s7.88,0,7.88,0v-4.47h-7.87v-6.83s-5,0-5,0Zm94.34,0v6.83h7.88v4.47h-7.88v11.55c0,1.31.1,2.42.73,3.15.68.84,2.1,1.32,3.41,1.31.73,0,2-.1,2.73-.31l1,4.52c-.95.32-2.47.53-3.89.52-3.1,0-5.41-1.1-6.98-2.89-1.47-1.62-1.99-3.88-1.99-6.56v-11.29h-3.59s0-4.47,0-4.47h3.59s0-6.83,0-6.83h4.99Z"/></svg>